<?xml version="1.0" encoding="UTF-8"?>
<!DOCTYPE svg PUBLIC "-//W3C//DTD SVG 1.1//EN" "http://www.w3.org/Graphics/SVG/1.1/DTD/svg11.dtd">
<svg xmlns="http://www.w3.org/2000/svg" version="1.1" width="64px" height="64px" style="shape-rendering:geometricPrecision; text-rendering:geometricPrecision; image-rendering:optimizeQuality; fill-rule:evenodd; clip-rule:evenodd" xmlns:xlink="http://www.w3.org/1999/xlink">
<g><path style="opacity:0.963" fill="#aeb8cb" d="M 15.5,5.5 C 15.7565,7.77613 17.0898,8.9428 19.5,9C 15.3431,11.6641 11.3431,14.4975 7.5,17.5C 7.44563,15.368 6.44563,14.0347 4.5,13.5C -0.0139166,5.80166 2.31942,1.635 11.5,1C 13.0414,2.37121 14.3747,3.87121 15.5,5.5 Z"/></g>
<g><path style="opacity:1" fill="#f7f8fa" d="M 7.5,3.5 C 8.99525,3.41483 9.99525,4.08149 10.5,5.5C 8.99512,6.84152 8.32846,8.50819 8.5,10.5C 6.40993,10.5499 5.0766,9.54986 4.5,7.5C 5.52435,6.14819 6.52435,4.81486 7.5,3.5 Z"/></g>
<g><path style="opacity:0.948" fill="#8d97a7" d="M 21.5,14.5 C 17.592,15.7497 14.592,18.083 12.5,21.5C 11.1805,22.9418 9.5138,23.6085 7.5,23.5C 7.5,21.5 7.5,19.5 7.5,17.5C 11.3431,14.4975 15.3431,11.6641 19.5,9C 17.0898,8.9428 15.7565,7.77613 15.5,5.5C 18.3704,4.36639 21.3704,3.69973 24.5,3.5C 24.5,4.83333 24.5,6.16667 24.5,7.5C 20.5,8.16667 20.5,8.83333 24.5,9.5C 24.69,11.9589 23.69,13.6255 21.5,14.5 Z"/></g>
<g><path style="opacity:0.966" fill="#7c8aa3" d="M 4.5,13.5 C 6.44563,14.0347 7.44563,15.368 7.5,17.5C 6.39936,18.8484 5.39936,20.3484 4.5,22C 3.55198,22.4828 2.55198,22.6495 1.5,22.5C 1.64687,19.2084 2.64687,16.2084 4.5,13.5 Z"/></g>
<g><path style="opacity:0.952" fill="#fecd2a" d="M 21.5,14.5 C 34.1296,22.4749 46.4629,30.8083 58.5,39.5C 48.0505,35.4858 37.7172,35.6525 27.5,40C 25.5359,41.451 24.2026,43.2843 23.5,45.5C 19.323,37.8077 15.6564,29.8077 12.5,21.5C 14.592,18.083 17.592,15.7497 21.5,14.5 Z"/></g>
<g><path style="opacity:0.971" fill="#ffe590" d="M 58.5,39.5 C 60.4113,40.075 62.078,41.075 63.5,42.5C 63.5,44.5 63.5,46.5 63.5,48.5C 60.4081,51.3793 56.7414,53.2127 52.5,54C 46.5,54.6667 40.5,54.6667 34.5,54C 31.624,53.5621 28.9573,52.5621 26.5,51C 24.393,49.7365 23.393,47.9032 23.5,45.5C 24.2026,43.2843 25.5359,41.451 27.5,40C 37.7172,35.6525 48.0505,35.4858 58.5,39.5 Z"/></g>
<g><path style="opacity:0.257" fill="#000000" d="M 48.5,63.5 C 37.1667,63.5 25.8333,63.5 14.5,63.5C 13.0484,62.6981 11.3817,62.1981 9.5,62C 8.16667,61 8.16667,60 9.5,59C 24.1667,57 38.8333,57 53.5,59C 54.8333,60 54.8333,61 53.5,62C 51.6183,62.1981 49.9516,62.6981 48.5,63.5 Z"/></g>
</svg>
